<svg xmlns="http://www.w3.org/2000/svg" width="48.004" height="46.804" viewBox="0 0 48.004 46.804">
  <g id="Layer_2" data-name="Layer 2" transform="translate(-11.692 -11.4)">
    <g id="Surfaces" transform="translate(11.692 11.4)">
      <g id="Photo_Surface" data-name="Photo Surface">
        <g id="Outline_no_shadow" data-name="Outline no shadow">
          <rect id="Rectangle_150917" data-name="Rectangle 150917" width="48.004" height="46.804" rx="5.667" fill="#001e36"/>
        </g>
      </g>
    </g>
    <g id="Outlined_Mnemonics_Logos" data-name="Outlined Mnemonics Logos" transform="translate(22.502 23.321)">
      <g id="Ps">
        <path id="Path_102599" data-name="Path 102599" d="M18.9,40.247V19.67q0-.225.194-.225c.342,0,.656,0,1.128-.017l1.53-.032c.548-.011,1.127-.023,1.739-.033s1.218-.015,1.82-.016a12.1,12.1,0,0,1,4.122.612A7.157,7.157,0,0,1,32.119,21.6a6.293,6.293,0,0,1,1.466,2.271,7.512,7.512,0,0,1,.45,2.592,7.146,7.146,0,0,1-1.191,4.25,6.733,6.733,0,0,1-3.219,2.432,12.85,12.85,0,0,1-4.509.675q-.709,0-1-.015c-.194-.01-.483-.016-.87-.016v6.425a.256.256,0,0,1-.218.29.289.289,0,0,1-.072,0H19.123C18.973,40.5,18.9,40.419,18.9,40.247Zm4.349-16.938V30.02c.279.021.537.032.773.032h1.064a7.506,7.506,0,0,0,2.3-.368,3.464,3.464,0,0,0,1.641-1.062,3.091,3.091,0,0,0,.629-2.061,3.272,3.272,0,0,0-.467-1.772,3.007,3.007,0,0,0-1.4-1.143,5.964,5.964,0,0,0-2.351-.4q-.774,0-1.368.016c-.4.011-.672.027-.822.048Z" transform="translate(-18.898 -19.347)" fill="#31a8ff"/>
        <path id="Path_102600" data-name="Path 102600" d="M40.745,27.151a7.485,7.485,0,0,0-1.916-.675,10.124,10.124,0,0,0-2.238-.258,4.156,4.156,0,0,0-1.208.144,1.089,1.089,0,0,0-.627.4,1.012,1.012,0,0,0-.162.548.861.861,0,0,0,.194.515,2.2,2.2,0,0,0,.677.531,13.332,13.332,0,0,0,1.416.66,14.115,14.115,0,0,1,3.075,1.466,4.672,4.672,0,0,1,1.578,1.659A4.422,4.422,0,0,1,42,34.2a4.631,4.631,0,0,1-.774,2.657,5.069,5.069,0,0,1-2.238,1.787,9.007,9.007,0,0,1-3.621.644,13.151,13.151,0,0,1-2.721-.257A8.727,8.727,0,0,1,30.6,38.39.418.418,0,0,1,30.376,38V34.526a.192.192,0,0,1,.081-.177.156.156,0,0,1,.177.017,8.582,8.582,0,0,0,2.48.983,10.264,10.264,0,0,0,2.351.306,3.6,3.6,0,0,0,1.658-.291.911.911,0,0,0,.533-.837,1.066,1.066,0,0,0-.483-.8,7.938,7.938,0,0,0-1.965-.935,11.9,11.9,0,0,1-2.85-1.449,4.933,4.933,0,0,1-1.514-1.691,4.451,4.451,0,0,1-.467-2.045,4.62,4.62,0,0,1,.677-2.415,4.913,4.913,0,0,1,2.093-1.836,7.907,7.907,0,0,1,3.543-.708,15.772,15.772,0,0,1,2.48.177,6.489,6.489,0,0,1,1.725.467.3.3,0,0,1,.194.177.885.885,0,0,1,.033.242v3.254a.215.215,0,0,1-.1.192A.311.311,0,0,1,40.745,27.151Z" transform="translate(-13.158 -17.699)" fill="#31a8ff"/>
      </g>
    </g>
  </g>
</svg>
