<svg xmlns="http://www.w3.org/2000/svg" width="40" height="38.988" viewBox="0 0 40 38.988">
  <g id="Group_183329" data-name="Group 183329" transform="translate(22359.008 20936.182)">
    <path id="Path_104841" data-name="Path 104841" d="M7.076,0H32.924A7.076,7.076,0,0,1,40,7.076V31.913a7.076,7.076,0,0,1-7.076,7.076H7.076A7.076,7.076,0,0,1,0,31.913V7.076A7.076,7.076,0,0,1,7.076,0" transform="translate(-22359.008 -20936.182)" fill="#470137"/>
    <path id="Path_104842" data-name="Path 104842" d="M22.855,14.111l-4.848,8.01,5.2,8.5a.281.281,0,0,1,0,.211H19.342c-.281,0-.422,0-.562-.211l-1.054-2.038-1.054-1.967L15.477,24.51h0l-1.124,2.108-1.124,2.108L12.1,30.763c-.07.141-.211.141-.351.141H8.1a.281.281,0,0,1,.07-.211L13.159,22.4,8.24,14.111c-.07-.07-.07-.141,0-.141h4.075l.141.141,1.054,2.108,1.124,1.967,1.124,2.038h0l1.054-2.108,1.124-2.038,1.054-2.038V13.9h3.654l.211.141a.141.141,0,0,1-.07.141" transform="translate(-22361.416 -20939.828)" fill="#ff61f6"/>
    <path id="Path_104843" data-name="Path 104843" d="M36.884,30.56a8.08,8.08,0,0,1-3.513-.7,5.551,5.551,0,0,1-2.459-2.178A7.026,7.026,0,0,1,30,23.956a6.816,6.816,0,0,1,.913-3.443,6.534,6.534,0,0,1,2.6-2.459,8.361,8.361,0,0,1,4.075-.913h.843V12.011c0-.141.07-.211.141-.211h3.3l.141.141a.141.141,0,0,1,0,.07V27.4a8.06,8.06,0,0,0,.07.984V29.3a.281.281,0,0,1-.141.281,12.929,12.929,0,0,1-2.67.773,14.052,14.052,0,0,1-2.529.211m1.686-3.232v-7.1h-.913a4.005,4.005,0,0,0-1.827.422,3.373,3.373,0,0,0-1.9,3.232,4.637,4.637,0,0,0,.281,1.686,3.162,3.162,0,0,0,.7,1.124,2.811,2.811,0,0,0,1.124.632,4.286,4.286,0,0,0,1.335.211H38.43" transform="translate(-22366.852 -20939.238)" fill="#ff61f6"/>
    <rect id="Rectangle_189563" data-name="Rectangle 189563" width="40" height="38.988" transform="translate(-22359.008 -20936.182)" fill="none"/>
  </g>
</svg>
